<svg xmlns="http://www.w3.org/2000/svg" width="32" height="32" viewBox="0 0 256 256" fill="none">
  <path d="M 80.716 48.499 C 81.058 48.295 81.401 48.094 81.746 47.895 C 82.091 47.696 82.437 47.499 82.784 47.305 C 83.131 47.110 83.479 46.918 83.829 46.728 C 84.179 46.538 84.530 46.350 84.882 46.164 C 85.234 45.979 85.587 45.796 85.942 45.615 C 86.296 45.434 86.652 45.255 87.009 45.079 C 87.365 44.902 87.723 44.728 88.082 44.556 C 88.441 44.385 88.802 44.215 89.163 44.048 C 89.524 43.881 89.886 43.716 90.250 43.554 C 90.613 43.391 90.977 43.231 91.343 43.074 C 91.708 42.916 92.075 42.760 92.442 42.607 C 92.809 42.454 93.178 42.304 93.547 42.156 C 93.917 42.007 94.287 41.862 94.658 41.718 C 95.029 41.575 95.402 41.434 95.775 41.295 C 96.148 41.156 96.522 41.020 96.896 40.886 C 97.271 40.752 97.647 40.621 98.023 40.492 C 98.400 40.363 98.777 40.236 99.155 40.112 C 99.534 39.988 99.913 39.867 100.292 39.747 C 100.672 39.628 101.053 39.511 101.434 39.397 C 101.815 39.283 102.197 39.171 102.580 39.062 C 102.962 38.952 103.346 38.845 103.730 38.741 C 104.114 38.636 104.498 38.534 104.884 38.435 C 105.269 38.336 105.655 38.239 106.042 38.144 C 106.428 38.050 106.816 37.958 107.204 37.868 C 107.591 37.779 107.980 37.692 108.369 37.607 C 108.758 37.523 109.147 37.441 109.537 37.361 C 109.927 37.282 110.317 37.205 110.708 37.131 C 111.099 37.056 111.491 36.984 111.883 36.915 C 112.275 36.846 112.667 36.779 113.060 36.715 C 113.453 36.650 113.846 36.588 114.239 36.529 C 114.633 36.470 115.027 36.413 115.421 36.359 C 115.815 36.305 116.210 36.254 116.605 36.205 C 117.000 36.156 117.395 36.109 117.791 36.065 C 118.186 36.021 118.582 35.980 118.978 35.941 C 119.375 35.902 119.771 35.866 120.167 35.832 C 120.564 35.799 120.961 35.767 121.358 35.739 C 121.755 35.710 122.152 35.684 122.549 35.661 C 122.946 35.637 123.344 35.616 123.742 35.598 C 124.139 35.580 124.537 35.564 124.935 35.551 C 125.332 35.538 125.730 35.527 126.128 35.519 C 126.526 35.511 126.924 35.505 127.322 35.502 C 127.720 35.500 128.118 35.499 128.516 35.501 C 128.914 35.504 129.312 35.508 129.710 35.516 C 130.108 35.523 130.506 35.533 130.903 35.546 C 131.301 35.558 131.699 35.573 132.097 35.591 C 132.494 35.608 132.892 35.629 133.289 35.651 C 133.686 35.674 134.084 35.699 134.481 35.727 C 134.878 35.755 135.274 35.786 135.671 35.819 C 136.068 35.852 136.464 35.887 136.860 35.925 C 137.256 35.963 137.652 36.004 138.048 36.047 C 138.444 36.091 138.839 36.136 139.234 36.185 C 139.629 36.233 140.024 36.284 140.418 36.337 C 140.813 36.391 141.207 36.447 141.600 36.505 C 141.994 36.564 142.387 36.625 142.780 36.688 C 143.173 36.752 143.566 36.818 143.958 36.887 C 144.350 36.956 144.741 37.027 145.132 37.100 C 145.523 37.174 145.914 37.250 146.304 37.329 C 146.694 37.408 147.084 37.489 147.473 37.573 C 147.862 37.657 148.251 37.743 148.639 37.832 C 149.026 37.921 149.414 38.012 149.801 38.106 C 150.187 38.200 150.574 38.296 150.959 38.395 C 151.345 38.493 151.730 38.595 152.114 38.698 C 152.498 38.802 152.882 38.908 153.265 39.017 C 153.647 39.126 154.030 39.237 154.411 39.351 C 154.792 39.464 155.173 39.580 155.553 39.699 C 155.933 39.817 156.312 39.938 156.690 40.062 C 157.069 40.185 157.446 40.311 157.823 40.440 C 158.200 40.568 158.576 40.699 158.951 40.832 C 159.326 40.965 159.700 41.101 160.073 41.239 C 160.447 41.377 160.819 41.517 161.191 41.660 C 161.562 41.803 161.933 41.948 162.302 42.095 C 162.672 42.243 163.041 42.393 163.408 42.545 C 163.776 42.698 164.143 42.852 164.508 43.009 C 164.874 43.167 165.239 43.326 165.602 43.488 C 165.966 43.650 166.329 43.814 166.690 43.980 C 167.052 44.147 167.412 44.315 167.771 44.487 C 168.131 44.658 168.489 44.831 168.846 45.007 C 169.203 45.183 169.559 45.361 169.914 45.541 C 170.269 45.721 170.622 45.904 170.975 46.089 C 171.327 46.274 171.678 46.461 172.028 46.650 C 172.378 46.840 172.727 47.032 173.075 47.225 C 173.422 47.419 173.769 47.616 174.114 47.814 C 174.459 48.012 174.802 48.213 175.145 48.416 C 175.487 48.619 175.828 48.824 176.168 49.031 C 176.508 49.238 176.846 49.448 177.183 49.659 C 177.520 49.871 177.856 50.085 178.190 50.301 C 178.525 50.517 178.858 50.735 179.189 50.955 C 179.521 51.175 179.851 51.398 180.179 51.622 C 180.508 51.847 180.835 52.073 181.161 52.302 C 181.487 52.531 181.811 52.762 182.134 52.995 C 182.456 53.227 182.777 53.462 183.097 53.700 C 183.417 53.937 183.735 54.176 184.052 54.417 C 184.368 54.658 184.683 54.901 184.997 55.147 C 185.310 55.392 185.622 55.639 185.932 55.888 C 186.243 56.138 186.551 56.389 186.858 56.642 C 187.165 56.895 187.471 57.151 187.774 57.408 C 188.078 57.665 188.380 57.924 188.681 58.185 C 188.981 58.446 189.280 58.709 189.577 58.974 C 189.874 59.239 190.169 59.506 190.463 59.775 C 190.756 60.044 191.048 60.314 191.338 60.587 C 191.628 60.859 191.916 61.134 192.203 61.410 C 192.489 61.686 192.774 61.964 193.057 62.244 C 193.340 62.524 193.621 62.806 193.900 63.089 C 194.180 63.373 194.457 63.658 194.733 63.945 C 195.008 64.232 195.282 64.521 195.554 64.812 C 195.826 65.103 196.096 65.395 196.364 65.689 C 196.632 65.983 196.898 66.279 197.162 66.577 C 197.427 66.874 197.689 67.174 197.950 67.475 C 198.210 67.776 198.468 68.078 198.725 68.383 C 198.981 68.687 199.236 68.993 199.489 69.300 C 199.741 69.608 199.992 69.917 200.240 70.228 C 200.489 70.539 200.735 70.851 200.980 71.165 C 201.225 71.479 201.467 71.795 201.707 72.112 C 201.948 72.429 202.186 72.748 202.423 73.068 C 202.659 73.388 202.893 73.710 203.126 74.033 C 203.358 74.357 203.588 74.681 203.816 75.008 C 204.044 75.334 204.270 75.661 204.494 75.991 C 204.717 76.320 204.939 76.650 205.159 76.982 C 205.378 77.314 205.595 77.648 205.811 77.982 C 206.026 78.317 206.239 78.653 206.450 78.991 C 206.661 79.328 206.869 79.667 207.076 80.008 C 207.282 80.348 207.487 80.689 207.689 81.032 C 207.891 81.375 208.091 81.719 208.288 82.065 C 208.486 82.410 208.681 82.757 208.875 83.105 C 209.068 83.453 209.259 83.802 209.447 84.153 C 209.636 84.503 209.822 84.855 210.006 85.208 C 210.191 85.560 210.372 85.914 210.552 86.270 C 210.732 86.625 210.909 86.981 211.084 87.339 C 211.259 87.696 211.431 88.055 211.602 88.414 C 211.772 88.774 211.940 89.135 212.106 89.497 C 212.271 89.859 212.435 90.222 212.596 90.586 C 212.757 90.950 212.915 91.315 213.071 91.681 C 213.228 92.047 213.382 92.414 213.533 92.782 C 213.685 93.150 213.834 93.519 213.981 93.889 C 214.127 94.259 214.272 94.630 214.414 95.001 C 214.556 95.373 214.695 95.746 214.833 96.120 C 214.970 96.493 215.104 96.868 215.237 97.243 C 215.369 97.618 215.499 97.995 215.627 98.372 C 215.754 98.749 215.879 99.126 216.002 99.505 C 216.124 99.884 216.244 100.263 216.362 100.643 C 216.480 101.024 216.595 101.404 216.708 101.786 C 216.821 102.168 216.931 102.550 217.039 102.933 C 217.147 103.316 217.252 103.700 217.355 104.085 C 217.458 104.469 217.558 104.854 217.656 105.240 C 217.754 105.626 217.850 106.012 217.943 106.399 C 218.035 106.786 218.126 107.174 218.214 107.562 C 218.302 107.950 218.387 108.339 218.470 108.728 C 218.553 109.117 218.633 109.507 218.711 109.897 C 218.789 110.288 218.865 110.679 218.937 111.070 C 219.010 111.461 219.081 111.853 219.148 112.245 C 219.216 112.637 219.281 113.030 219.344 113.423 C 219.407 113.816 219.467 114.209 219.525 114.603 C 219.582 114.997 219.637 115.391 219.690 115.786 C 219.743 116.180 219.793 116.575 219.840 116.970 C 219.887 117.365 219.932 117.761 219.975 118.156 C 220.017 118.552 220.057 118.948 220.094 119.344 C 220.131 119.741 220.166 120.137 220.198 120.534 C 220.230 120.931 220.260 121.327 220.287 121.725 C 220.314 122.122 220.338 122.519 220.360 122.916 C 220.382 123.314 220.401 123.711 220.418 124.109 C 220.435 124.507 220.449 124.904 220.461 125.302 C 220.472 125.700 220.481 126.098 220.488 126.496 C 220.494 126.894 220.498 127.292 220.499 127.690 C 220.501 128.088 220.500 128.486 220.496 128.884 C 220.492 129.282 220.486 129.680 220.477 130.077 C 220.468 130.475 220.456 130.873 220.442 131.271 C 220.428 131.669 220.411 132.066 220.392 132.464 C 220.373 132.861 220.351 133.259 220.327 133.656 C 220.303 134.053 220.276 134.450 220.246 134.847 C 220.217 135.244 220.185 135.641 220.150 136.037 C 220.116 136.434 220.078 136.830 220.039 137.226 C 219.999 137.622 219.957 138.018 219.912 138.413 C 219.867 138.809 219.820 139.204 219.770 139.599 C 219.720 139.994 219.668 140.388 219.613 140.782 C 219.558 141.177 219.500 141.570 219.440 141.964 C 219.380 142.357 219.317 142.750 219.252 143.143 C 219.187 143.536 219.119 143.928 219.049 144.320 C 218.979 144.711 218.906 145.103 218.831 145.493 C 218.755 145.884 218.678 146.275 218.597 146.664 C 218.517 147.054 218.434 147.444 218.349 147.832 C 218.264 148.221 218.176 148.609 218.085 148.997 C 217.995 149.384 217.902 149.771 217.807 150.158 C 217.712 150.544 217.614 150.930 217.513 151.315 C 217.413 151.700 217.310 152.085 217.205 152.469 C 217.100 152.852 216.992 153.236 216.882 153.618 C 216.772 154.000 216.659 154.382 216.544 154.763 C 216.429 155.144 216.311 155.524 216.191 155.904 C 216.071 156.283 215.948 156.662 215.823 157.040 C 215.698 157.418 215.571 157.795 215.441 158.171 C 215.311 158.547 215.179 158.923 215.044 159.297 C 214.910 159.672 214.773 160.045 214.633 160.418 C 214.494 160.791 214.352 161.163 214.208 161.534 C 214.063 161.905 213.917 162.274 213.768 162.644 C 213.619 163.013 213.467 163.381 213.313 163.748 C 213.159 164.115 213.003 164.481 212.845 164.846 C 212.686 165.211 212.525 165.575 212.362 165.938 C 212.199 166.301 212.033 166.663 211.865 167.024 C 211.697 167.385 211.527 167.744 211.355 168.103 C 211.182 168.462 211.007 168.819 210.830 169.176 C 210.653 169.532 210.473 169.887 210.292 170.241" fill="none" stroke="currentColor" stroke-width="10" stroke-linecap="round" stroke-linejoin="round"/>
  <path d="M 175.284 207.501 C 174.942 207.705 174.599 207.906 174.254 208.105 C 173.909 208.304 173.563 208.501 173.216 208.695 C 172.869 208.890 172.521 209.082 172.171 209.272 C 171.821 209.462 171.470 209.650 171.118 209.836 C 170.766 210.021 170.413 210.204 170.058 210.385 C 169.704 210.566 169.348 210.745 168.991 210.921 C 168.635 211.098 168.277 211.272 167.918 211.444 C 167.559 211.615 167.198 211.785 166.837 211.952 C 166.476 212.119 166.114 212.284 165.750 212.446 C 165.387 212.609 165.023 212.769 164.657 212.926 C 164.292 213.084 163.925 213.240 163.558 213.393 C 163.191 213.546 162.822 213.696 162.453 213.844 C 162.083 213.993 161.713 214.138 161.342 214.282 C 160.971 214.425 160.598 214.566 160.225 214.705 C 159.852 214.844 159.478 214.980 159.104 215.114 C 158.729 215.248 158.353 215.379 157.977 215.508 C 157.600 215.637 157.223 215.764 156.845 215.888 C 156.466 216.012 156.087 216.133 155.708 216.253 C 155.328 216.372 154.947 216.489 154.566 216.603 C 154.185 216.717 153.803 216.829 153.420 216.938 C 153.038 217.048 152.654 217.155 152.270 217.259 C 151.886 217.364 151.502 217.466 151.116 217.565 C 150.731 217.664 150.345 217.761 149.958 217.856 C 149.572 217.950 149.184 218.042 148.796 218.132 C 148.409 218.221 148.020 218.308 147.631 218.393 C 147.242 218.477 146.853 218.559 146.463 218.639 C 146.073 218.718 145.683 218.795 145.292 218.869 C 144.901 218.944 144.509 219.016 144.117 219.085 C 143.725 219.154 143.333 219.221 142.940 219.285 C 142.547 219.350 142.154 219.412 141.761 219.471 C 141.367 219.530 140.973 219.587 140.579 219.641 C 140.185 219.695 139.790 219.746 139.395 219.795 C 139.000 219.844 138.605 219.891 138.209 219.935 C 137.814 219.979 137.418 220.020 137.022 220.059 C 136.625 220.098 136.229 220.134 135.833 220.168 C 135.436 220.201 135.039 220.233 134.642 220.261 C 134.245 220.290 133.848 220.316 133.451 220.339 C 133.054 220.363 132.656 220.384 132.258 220.402 C 131.861 220.420 131.463 220.436 131.065 220.449 C 130.668 220.462 130.270 220.473 129.872 220.481 C 129.474 220.489 129.076 220.495 128.678 220.498 C 128.280 220.500 127.882 220.501 127.484 220.499 C 127.086 220.496 126.688 220.492 126.290 220.484 C 125.892 220.477 125.494 220.467 125.097 220.454 C 124.699 220.442 124.301 220.427 123.903 220.409 C 123.506 220.392 123.108 220.371 122.711 220.349 C 122.314 220.326 121.916 220.301 121.519 220.273 C 121.122 220.245 120.726 220.214 120.329 220.181 C 119.932 220.148 119.536 220.113 119.140 220.075 C 118.744 220.037 118.348 219.996 117.952 219.953 C 117.556 219.909 117.161 219.864 116.766 219.815 C 116.371 219.767 115.976 219.716 115.582 219.663 C 115.187 219.609 114.793 219.553 114.400 219.495 C 114.006 219.436 113.613 219.375 113.220 219.312 C 112.827 219.248 112.434 219.182 112.042 219.113 C 111.650 219.044 111.259 218.973 110.868 218.900 C 110.477 218.826 110.086 218.750 109.696 218.671 C 109.306 218.592 108.916 218.511 108.527 218.427 C 108.138 218.343 107.749 218.257 107.361 218.168 C 106.974 218.079 106.586 217.988 106.199 217.894 C 105.813 217.800 105.426 217.704 105.041 217.605 C 104.655 217.507 104.270 217.405 103.886 217.302 C 103.502 217.198 103.118 217.092 102.735 216.983 C 102.353 216.874 101.970 216.763 101.589 216.649 C 101.208 216.536 100.827 216.420 100.447 216.301 C 100.067 216.183 99.688 216.062 99.310 215.938 C 98.931 215.815 98.554 215.689 98.177 215.560 C 97.800 215.432 97.424 215.301 97.049 215.168 C 96.674 215.035 96.300 214.899 95.927 214.761 C 95.553 214.623 95.181 214.483 94.809 214.340 C 94.438 214.197 94.067 214.052 93.698 213.905 C 93.328 213.757 92.959 213.607 92.592 213.455 C 92.224 213.302 91.857 213.148 91.492 212.991 C 91.126 212.833 90.761 212.674 90.398 212.512 C 90.034 212.350 89.671 212.186 89.310 212.020 C 88.948 211.853 88.588 211.685 88.229 211.513 C 87.869 211.342 87.511 211.169 87.154 210.993 C 86.797 210.817 86.441 210.639 86.086 210.459 C 85.731 210.279 85.378 210.096 85.025 209.911 C 84.673 209.726 84.322 209.539 83.972 209.350 C 83.622 209.160 83.273 208.968 82.925 208.775 C 82.578 208.581 82.231 208.384 81.886 208.186 C 81.541 207.988 81.198 207.787 80.855 207.584 C 80.513 207.381 80.172 207.176 79.832 206.969 C 79.492 206.762 79.154 206.552 78.817 206.341 C 78.480 206.129 78.144 205.915 77.810 205.699 C 77.475 205.483 77.142 205.265 76.811 205.045 C 76.479 204.825 76.149 204.602 75.821 204.378 C 75.492 204.153 75.165 203.927 74.839 203.698 C 74.513 203.469 74.189 203.238 73.866 203.005 C 73.544 202.773 73.223 202.538 72.903 202.300 C 72.583 202.063 72.265 201.824 71.948 201.583 C 71.632 201.342 71.317 201.099 71.003 200.853 C 70.690 200.608 70.378 200.361 70.068 200.112 C 69.757 199.862 69.449 199.611 69.142 199.358 C 68.835 199.105 68.529 198.849 68.226 198.592 C 67.922 198.335 67.620 198.076 67.319 197.815 C 67.019 197.554 66.720 197.291 66.423 197.026 C 66.126 196.761 65.831 196.494 65.537 196.225 C 65.244 195.956 64.952 195.686 64.662 195.413 C 64.372 195.141 64.084 194.866 63.797 194.590 C 63.511 194.314 63.226 194.036 62.943 193.756 C 62.660 193.476 62.379 193.194 62.100 192.911 C 61.820 192.627 61.543 192.342 61.267 192.055 C 60.992 191.768 60.718 191.479 60.446 191.188 C 60.174 190.897 59.904 190.605 59.636 190.311 C 59.368 190.017 59.102 189.721 58.838 189.423 C 58.573 189.126 58.311 188.826 58.050 188.525 C 57.790 188.224 57.532 187.922 57.275 187.617 C 57.019 187.313 56.764 187.007 56.511 186.700 C 56.259 186.392 56.008 186.083 55.760 185.772 C 55.511 185.461 55.265 185.149 55.020 184.835 C 54.775 184.521 54.533 184.205 54.293 183.888 C 54.052 183.571 53.814 183.252 53.577 182.932 C 53.341 182.612 53.107 182.290 52.874 181.967 C 52.642 181.643 52.412 181.319 52.184 180.992 C 51.956 180.666 51.730 180.339 51.506 180.009 C 51.283 179.680 51.061 179.350 50.841 179.018 C 50.622 178.686 50.405 178.352 50.189 178.018 C 49.974 177.683 49.761 177.347 49.550 177.009 C 49.339 176.672 49.131 176.333 48.924 175.992 C 48.718 175.652 48.513 175.311 48.311 174.968 C 48.109 174.625 47.909 174.281 47.712 173.935 C 47.514 173.590 47.319 173.243 47.125 172.895 C 46.932 172.547 46.741 172.198 46.553 171.847 C 46.364 171.497 46.178 171.145 45.994 170.792 C 45.809 170.440 45.628 170.086 45.448 169.730 C 45.268 169.375 45.091 169.019 44.916 168.661 C 44.741 168.304 44.569 167.945 44.398 167.586 C 44.228 167.226 44.060 166.865 43.894 166.503 C 43.729 166.141 43.565 165.778 43.404 165.414 C 43.243 165.050 43.085 164.685 42.929 164.319 C 42.772 163.953 42.618 163.586 42.467 163.218 C 42.315 162.850 42.166 162.481 42.019 162.111 C 41.873 161.741 41.728 161.370 41.586 160.999 C 41.444 160.627 41.305 160.254 41.167 159.880 C 41.030 159.507 40.896 159.132 40.763 158.757 C 40.631 158.382 40.501 158.005 40.373 157.628 C 40.246 157.251 40.121 156.874 39.998 156.495 C 39.876 156.116 39.756 155.737 39.638 155.357 C 39.520 154.976 39.405 154.596 39.292 154.214 C 39.179 153.832 39.069 153.450 38.961 153.067 C 38.853 152.684 38.748 152.300 38.645 151.915 C 38.542 151.531 38.442 151.146 38.344 150.760 C 38.246 150.374 38.150 149.988 38.057 149.601 C 37.965 149.214 37.874 148.826 37.786 148.438 C 37.698 148.050 37.613 147.661 37.530 147.272 C 37.447 146.883 37.367 146.493 37.289 146.103 C 37.211 145.712 37.135 145.321 37.063 144.930 C 36.990 144.539 36.919 144.147 36.852 143.755 C 36.784 143.363 36.719 142.970 36.656 142.577 C 36.593 142.184 36.533 141.791 36.475 141.397 C 36.418 141.003 36.363 140.609 36.310 140.214 C 36.257 139.820 36.207 139.425 36.160 139.030 C 36.113 138.635 36.068 138.239 36.025 137.844 C 35.983 137.448 35.943 137.052 35.906 136.656 C 35.869 136.259 35.834 135.863 35.802 135.466 C 35.770 135.069 35.740 134.673 35.713 134.275 C 35.686 133.878 35.662 133.481 35.640 133.084 C 35.618 132.686 35.599 132.289 35.582 131.891 C 35.565 131.493 35.551 131.096 35.539 130.698 C 35.528 130.300 35.519 129.902 35.512 129.504 C 35.506 129.106 35.502 128.708 35.501 128.310 C 35.499 127.912 35.500 127.514 35.504 127.116 C 35.508 126.718 35.514 126.320 35.523 125.923 C 35.532 125.525 35.544 125.127 35.558 124.729 C 35.572 124.331 35.589 123.934 35.608 123.536 C 35.627 123.139 35.649 122.741 35.673 122.344 C 35.697 121.947 35.724 121.550 35.754 121.153 C 35.783 120.756 35.815 120.359 35.850 119.963 C 35.884 119.566 35.922 119.170 35.961 118.774 C 36.001 118.378 36.043 117.982 36.088 117.587 C 36.133 117.191 36.180 116.796 36.230 116.401 C 36.280 116.006 36.332 115.612 36.387 115.218 C 36.442 114.823 36.500 114.430 36.560 114.036 C 36.620 113.643 36.683 113.250 36.748 112.857 C 36.813 112.464 36.881 112.072 36.951 111.680 C 37.021 111.289 37.094 110.897 37.169 110.507 C 37.245 110.116 37.322 109.725 37.403 109.336 C 37.483 108.946 37.566 108.556 37.651 108.168 C 37.736 107.779 37.824 107.391 37.915 107.003 C 38.005 106.616 38.098 106.229 38.193 105.842 C 38.288 105.456 38.386 105.070 38.487 104.685 C 38.587 104.300 38.690 103.915 38.795 103.531 C 38.900 103.148 39.008 102.764 39.118 102.382 C 39.228 102.000 39.341 101.618 39.456 101.237 C 39.571 100.856 39.689 100.476 39.809 100.096 C 39.929 99.717 40.052 99.338 40.177 98.960 C 40.302 98.582 40.429 98.205 40.559 97.829 C 40.689 97.453 40.821 97.077 40.956 96.703 C 41.090 96.328 41.227 95.955 41.367 95.582 C 41.506 95.209 41.648 94.837 41.792 94.466 C 41.937 94.095 42.083 93.726 42.232 93.356 C 42.381 92.987 42.533 92.619 42.687 92.252 C 42.841 91.885 42.997 91.519 43.155 91.154 C 43.314 90.789 43.475 90.425 43.638 90.062 C 43.801 89.699 43.967 89.337 44.135 88.976 C 44.303 88.615 44.473 88.256 44.645 87.897 C 44.818 87.538 44.993 87.181 45.170 86.824 C 45.347 86.468 45.527 86.113 45.708 85.759" fill="none" stroke="currentColor" stroke-width="10" stroke-linecap="round" stroke-linejoin="round"/>
  <path d="M 42.900 28.100 C 43.149 28.846 43.401 29.585 43.657 30.320 C 43.913 31.054 44.174 31.783 44.438 32.507 C 44.701 33.231 44.969 33.949 45.241 34.662 C 45.512 35.375 45.787 36.082 46.066 36.785 C 46.345 37.487 46.628 38.184 46.914 38.876 C 47.200 39.568 47.490 40.255 47.783 40.936 C 48.077 41.618 48.374 42.295 48.674 42.967 C 48.975 43.638 49.279 44.305 49.586 44.967 C 49.893 45.629 50.204 46.286 50.518 46.938 C 50.833 47.590 51.150 48.237 51.471 48.880 C 51.792 49.522 52.117 50.160 52.444 50.793 C 52.772 51.426 53.103 52.055 53.437 52.679 C 53.771 53.303 54.108 53.922 54.448 54.537 C 54.789 55.152 55.132 55.762 55.479 56.368 C 55.826 56.974 56.176 57.576 56.528 58.173 C 56.881 58.771 57.237 59.364 57.596 59.952 C 57.955 60.541 58.316 61.126 58.681 61.706 C 59.046 62.286 59.414 62.863 59.784 63.435 C 60.155 64.007 60.528 64.575 60.904 65.139 C 61.280 65.703 61.659 66.263 62.041 66.819 C 62.423 67.376 62.807 67.928 63.195 68.476 C 63.582 69.025 63.972 69.569 64.364 70.110 C 64.757 70.651 65.152 71.188 65.549 71.722 C 65.947 72.255 66.347 72.785 66.750 73.312 C 67.153 73.838 67.558 74.361 67.966 74.880 C 68.374 75.399 68.784 75.915 69.196 76.427 C 69.609 76.940 70.024 77.449 70.441 77.954 C 70.859 78.460 71.278 78.962 71.700 79.461 C 72.122 79.960 72.546 80.456 72.973 80.949 C 73.399 81.441 73.828 81.931 74.259 82.417 C 74.690 82.904 75.123 83.387 75.558 83.868 C 75.993 84.348 76.430 84.825 76.869 85.300 C 77.308 85.774 77.750 86.246 78.193 86.715 C 78.636 87.183 79.082 87.649 79.529 88.112 C 79.976 88.576 80.425 89.036 80.876 89.494 C 81.327 89.952 81.780 90.407 82.234 90.859 C 82.689 91.312 83.146 91.762 83.604 92.209 C 84.062 92.657 84.522 93.102 84.984 93.545 C 85.445 93.987 85.909 94.427 86.374 94.865 C 86.839 95.303 87.305 95.739 87.774 96.172 C 88.242 96.605 88.712 97.036 89.183 97.465 C 89.654 97.894 90.127 98.321 90.601 98.745 C 91.076 99.170 91.552 99.593 92.029 100.013 C 92.506 100.434 92.984 100.852 93.464 101.269 C 93.944 101.686 94.425 102.101 94.908 102.514 C 95.391 102.927 95.874 103.338 96.359 103.747 C 96.844 104.156 97.331 104.564 97.818 104.970 C 98.306 105.376 98.794 105.780 99.284 106.183 C 99.774 106.586 100.265 106.987 100.756 107.387 C 101.248 107.786 101.741 108.184 102.235 108.581 C 102.729 108.978 103.224 109.373 103.720 109.767 C 104.216 110.161 104.713 110.554 105.210 110.945 C 105.708 111.337 106.206 111.727 106.706 112.116 C 107.205 112.505 107.705 112.893 108.206 113.280 C 108.707 113.667 109.209 114.052 109.711 114.437 C 110.214 114.822 110.717 115.206 111.221 115.588 C 111.724 115.971 112.229 116.353 112.734 116.734 C 113.239 117.115 113.744 117.495 114.250 117.875 C 114.757 118.254 115.263 118.633 115.770 119.011 C 116.277 119.389 116.785 119.767 117.293 120.144 C 117.801 120.520 118.309 120.897 118.818 121.272 C 119.327 121.648 119.836 122.023 120.345 122.398 C 120.854 122.773 121.364 123.147 121.874 123.522 C 122.384 123.896 122.894 124.269 123.404 124.643 C 123.914 125.016 124.425 125.390 124.936 125.763 C 125.446 126.136 125.957 126.509 126.468 126.882 C 126.978 127.254 127.489 127.627 128.000 128.000 C 128.511 128.373 129.022 128.746 129.532 129.118 C 130.043 129.491 130.554 129.864 131.064 130.237 C 131.575 130.610 132.086 130.984 132.596 131.357 C 133.106 131.731 133.616 132.104 134.126 132.478 C 134.636 132.853 135.146 133.227 135.655 133.602 C 136.164 133.977 136.673 134.352 137.182 134.728 C 137.691 135.103 138.199 135.480 138.707 135.856 C 139.215 136.233 139.723 136.611 140.230 136.989 C 140.737 137.367 141.243 137.746 141.750 138.125 C 142.256 138.505 142.761 138.885 143.266 139.266 C 143.771 139.647 144.276 140.029 144.779 140.412 C 145.283 140.794 145.786 141.178 146.289 141.563 C 146.791 141.948 147.293 142.333 147.794 142.720 C 148.295 143.107 148.795 143.495 149.294 143.884 C 149.794 144.273 150.292 144.663 150.790 145.055 C 151.287 145.446 151.784 145.839 152.280 146.233 C 152.776 146.627 153.271 147.022 153.765 147.419 C 154.259 147.816 154.752 148.214 155.244 148.613 C 155.735 149.013 156.226 149.414 156.716 149.817 C 157.206 150.220 157.694 150.624 158.182 151.030 C 158.669 151.436 159.156 151.844 159.641 152.253 C 160.126 152.662 160.609 153.073 161.092 153.486 C 161.575 153.899 162.056 154.314 162.536 154.731 C 163.016 155.148 163.494 155.566 163.971 155.987 C 164.448 156.407 164.924 156.830 165.399 157.255 C 165.873 157.679 166.346 158.106 166.817 158.535 C 167.288 158.964 167.758 159.395 168.226 159.828 C 168.695 160.261 169.161 160.697 169.626 161.135 C 170.091 161.573 170.555 162.013 171.016 162.455 C 171.478 162.898 171.938 163.343 172.396 163.791 C 172.854 164.238 173.311 164.688 173.766 165.141 C 174.220 165.593 174.673 166.048 175.124 166.506 C 175.575 166.964 176.024 167.424 176.471 167.888 C 176.918 168.351 177.364 168.817 177.807 169.285 C 178.250 169.754 178.692 170.226 179.131 170.700 C 179.570 171.175 180.007 171.652 180.442 172.132 C 180.877 172.613 181.310 173.096 181.741 173.583 C 182.172 174.069 182.601 174.559 183.027 175.051 C 183.454 175.544 183.878 176.040 184.300 176.539 C 184.722 177.038 185.141 177.540 185.559 178.046 C 185.976 178.551 186.391 179.060 186.804 179.573 C 187.216 180.085 187.626 180.601 188.034 181.120 C 188.442 181.639 188.847 182.162 189.250 182.688 C 189.653 183.215 190.053 183.745 190.451 184.278 C 190.848 184.812 191.243 185.349 191.636 185.890 C 192.028 186.431 192.418 186.975 192.805 187.524 C 193.193 188.072 193.577 188.624 193.959 189.181 C 194.341 189.737 194.720 190.297 195.096 190.861 C 195.472 191.425 195.845 191.993 196.216 192.565 C 196.586 193.137 196.954 193.714 197.319 194.294 C 197.684 194.874 198.045 195.459 198.404 196.048 C 198.763 196.636 199.119 197.229 199.472 197.827 C 199.824 198.424 200.174 199.026 200.521 199.632 C 200.868 200.238 201.211 200.848 201.552 201.463 C 201.892 202.078 202.229 202.697 202.563 203.321 C 202.897 203.945 203.228 204.574 203.556 205.207 C 203.883 205.840 204.208 206.478 204.529 207.120 C 204.850 207.763 205.167 208.410 205.482 209.062 C 205.796 209.714 206.107 210.371 206.414 211.033 C 206.721 211.695 207.025 212.362 207.326 213.033 C 207.626 213.705 207.923 214.382 208.217 215.064 C 208.510 215.745 208.800 216.432 209.086 217.124 C 209.372 217.816 209.655 218.513 209.934 219.215 C 210.213 219.918 210.488 220.625 210.759 221.338 C 211.031 222.051 211.299 222.769 211.562 223.493 C 211.826 224.217 212.087 224.946 212.343 225.680 C 212.599 226.415 212.851 227.154 213.100 227.900" fill="none" stroke="currentColor" stroke-width="10" stroke-linecap="round" stroke-linejoin="round"/>
  <path d="M 128.000 68.800 C 128.201 68.800 128.401 68.801 128.602 68.803 C 128.802 68.805 129.003 68.808 129.203 68.812 C 129.404 68.816 129.604 68.821 129.805 68.828 C 130.005 68.834 130.206 68.841 130.406 68.849 C 130.607 68.857 130.807 68.866 131.007 68.876 C 131.208 68.887 131.408 68.898 131.608 68.910 C 131.809 68.922 132.009 68.936 132.209 68.950 C 132.409 68.964 132.609 68.979 132.809 68.996 C 133.009 69.012 133.209 69.029 133.408 69.048 C 133.608 69.066 133.808 69.085 134.007 69.106 C 134.207 69.126 134.406 69.147 134.606 69.170 C 134.805 69.192 135.004 69.215 135.203 69.240 C 135.402 69.264 135.601 69.290 135.800 69.316 C 135.999 69.343 136.198 69.370 136.396 69.398 C 136.595 69.427 136.793 69.456 136.991 69.487 C 137.190 69.517 137.388 69.549 137.586 69.581 C 137.784 69.614 137.981 69.647 138.179 69.682 C 138.377 69.716 138.574 69.752 138.771 69.788 C 138.969 69.825 139.166 69.862 139.362 69.901 C 139.559 69.939 139.756 69.979 139.952 70.019 C 140.149 70.060 140.345 70.101 140.541 70.144 C 140.737 70.186 140.933 70.230 141.129 70.274 C 141.324 70.319 141.520 70.364 141.715 70.411 C 141.910 70.457 142.105 70.504 142.299 70.553 C 142.494 70.601 142.688 70.651 142.883 70.701 C 143.077 70.752 143.271 70.803 143.464 70.855 C 143.658 70.908 143.851 70.961 144.044 71.016 C 144.237 71.070 144.430 71.125 144.623 71.182 C 144.815 71.238 145.007 71.295 145.199 71.354 C 145.391 71.412 145.583 71.471 145.774 71.531 C 145.966 71.591 146.157 71.653 146.347 71.715 C 146.538 71.777 146.728 71.840 146.918 71.904 C 147.108 71.968 147.298 72.033 147.488 72.099 C 147.677 72.165 147.866 72.232 148.055 72.300 C 148.244 72.368 148.432 72.437 148.620 72.507 C 148.808 72.577 148.996 72.648 149.183 72.720 C 149.370 72.791 149.557 72.864 149.744 72.938 C 149.930 73.011 150.117 73.086 150.302 73.162 C 150.488 73.237 150.674 73.314 150.859 73.391 C 151.044 73.469 151.228 73.547 151.412 73.626 C 151.597 73.706 151.781 73.786 151.964 73.867 C 152.147 73.948 152.330 74.030 152.513 74.114 C 152.696 74.197 152.878 74.281 153.059 74.365 C 153.241 74.450 153.422 74.536 153.603 74.623 C 153.784 74.710 153.965 74.797 154.145 74.886 C 154.325 74.975 154.504 75.064 154.683 75.154 C 154.862 75.245 155.041 75.336 155.219 75.428 C 155.397 75.521 155.575 75.614 155.752 75.708 C 155.929 75.802 156.106 75.897 156.282 75.993 C 156.458 76.088 156.634 76.185 156.809 76.283 C 156.984 76.380 157.159 76.479 157.333 76.578 C 157.508 76.678 157.681 76.778 157.854 76.879 C 158.028 76.980 158.200 77.082 158.373 77.185 C 158.545 77.288 158.716 77.392 158.888 77.497 C 159.059 77.601 159.229 77.707 159.399 77.813 C 159.569 77.919 159.739 78.027 159.908 78.135 C 160.077 78.243 160.245 78.352 160.413 78.462 C 160.581 78.572 160.748 78.682 160.915 78.794 C 161.082 78.905 161.248 79.018 161.413 79.131 C 161.579 79.244 161.744 79.358 161.908 79.473 C 162.073 79.588 162.237 79.704 162.400 79.820 C 162.563 79.937 162.726 80.054 162.888 80.172 C 163.050 80.291 163.211 80.410 163.372 80.529 C 163.533 80.649 163.693 80.770 163.853 80.891 C 164.012 81.013 164.171 81.135 164.330 81.258 C 164.488 81.381 164.646 81.505 164.803 81.630 C 164.960 81.755 165.117 81.880 165.272 82.006 C 165.428 82.133 165.583 82.260 165.738 82.388 C 165.893 82.516 166.046 82.644 166.200 82.774 C 166.353 82.903 166.506 83.033 166.657 83.164 C 166.809 83.295 166.961 83.427 167.111 83.560 C 167.262 83.692 167.412 83.825 167.561 83.959 C 167.710 84.093 167.859 84.228 168.007 84.364 C 168.154 84.499 168.302 84.636 168.448 84.773 C 168.594 84.910 168.740 85.048 168.885 85.186 C 169.030 85.325 169.175 85.464 169.318 85.604 C 169.462 85.744 169.605 85.885 169.747 86.026 C 169.889 86.167 170.031 86.310 170.172 86.453 C 170.312 86.595 170.452 86.739 170.592 86.883 C 170.731 87.028 170.870 87.173 171.008 87.318 C 171.145 87.464 171.282 87.611 171.419 87.758 C 171.555 87.905 171.691 88.053 171.826 88.201 C 171.960 88.350 172.095 88.499 172.228 88.649 C 172.361 88.798 172.494 88.949 172.626 89.100 C 172.757 89.251 172.888 89.403 173.019 89.556 C 173.149 89.708 173.278 89.862 173.407 90.015 C 173.536 90.169 173.664 90.324 173.791 90.479 C 173.918 90.634 174.044 90.790 174.170 90.946 C 174.295 91.103 174.420 91.260 174.544 91.418 C 174.668 91.575 174.791 91.734 174.914 91.893 C 175.036 92.051 175.158 92.211 175.278 92.371 C 175.399 92.531 175.519 92.692 175.638 92.854 C 175.757 93.015 175.875 93.177 175.993 93.340 C 176.110 93.502 176.227 93.665 176.343 93.829 C 176.458 93.993 176.573 94.157 176.687 94.322 C 176.801 94.487 176.915 94.653 177.027 94.819 C 177.140 94.985 177.251 95.152 177.362 95.319 C 177.473 95.486 177.583 95.654 177.692 95.823 C 177.801 95.991 177.909 96.160 178.016 96.329 C 178.123 96.499 178.230 96.669 178.335 96.839 C 178.441 97.010 178.546 97.181 178.650 97.353 C 178.753 97.524 178.856 97.696 178.958 97.869 C 179.061 98.042 179.162 98.215 179.262 98.389 C 179.362 98.562 179.462 98.736 179.560 98.911 C 179.659 99.086 179.757 99.261 179.853 99.437 C 179.950 99.612 180.046 99.789 180.141 99.965 C 180.236 100.142 180.330 100.319 180.423 100.497 C 180.517 100.674 180.609 100.852 180.700 101.031 C 180.792 101.210 180.882 101.389 180.972 101.568 C 181.061 101.748 181.150 101.927 181.238 102.108 C 181.325 102.288 181.412 102.469 181.498 102.650 C 181.584 102.832 181.669 103.013 181.753 103.195 C 181.837 103.378 181.920 103.560 182.002 103.743 C 182.084 103.926 182.166 104.109 182.246 104.293 C 182.326 104.477 182.406 104.661 182.484 104.846 C 182.563 105.030 182.640 105.216 182.717 105.401 C 182.793 105.586 182.869 105.772 182.944 105.958 C 183.018 106.144 183.092 106.331 183.165 106.518 C 183.238 106.705 183.309 106.892 183.380 107.080 C 183.451 107.267 183.521 107.455 183.590 107.644 C 183.659 107.832 183.727 108.021 183.794 108.210 C 183.861 108.399 183.927 108.588 183.992 108.778 C 184.058 108.968 184.122 109.158 184.185 109.348 C 184.248 109.538 184.310 109.729 184.372 109.920 C 184.433 110.111 184.493 110.302 184.552 110.494 C 184.612 110.686 184.670 110.878 184.727 111.070 C 184.785 111.262 184.841 111.455 184.897 111.647 C 184.952 111.840 185.006 112.033 185.060 112.226 C 185.113 112.420 185.166 112.613 185.217 112.807 C 185.269 113.001 185.319 113.195 185.369 113.390 C 185.418 113.584 185.467 113.779 185.514 113.974 C 185.562 114.168 185.608 114.364 185.654 114.559 C 185.699 114.754 185.744 114.950 185.788 115.146 C 185.831 115.341 185.874 115.537 185.915 115.734 C 185.957 115.930 185.997 116.126 186.037 116.323 C 186.077 116.520 186.115 116.716 186.153 116.914 C 186.190 117.111 186.227 117.308 186.262 117.505 C 186.298 117.703 186.332 117.900 186.366 118.098 C 186.400 118.296 186.432 118.494 186.464 118.692 C 186.495 118.890 186.526 119.088 186.555 119.286 C 186.585 119.485 186.613 119.683 186.641 119.882 C 186.668 120.081 186.695 120.280 186.720 120.479 C 186.746 120.678 186.770 120.877 186.794 121.076 C 186.817 121.275 186.840 121.474 186.861 121.674 C 186.882 121.873 186.903 122.073 186.922 122.272 C 186.942 122.472 186.960 122.672 186.977 122.872 C 186.995 123.071 187.011 123.271 187.027 123.471 C 187.042 123.671 187.056 123.871 187.070 124.072 C 187.083 124.272 187.095 124.472 187.106 124.672 C 187.118 124.873 187.128 125.073 187.137 125.273 C 187.146 125.474 187.155 125.674 187.162 125.874 C 187.169 126.075 187.175 126.275 187.180 126.476 C 187.186 126.676 187.190 126.877 187.193 127.078 C 187.196 127.278 187.198 127.479 187.199 127.679 C 187.200 127.880 187.200 128.080 187.199 128.281 C 187.198 128.482 187.196 128.682 187.193 128.883 C 187.190 129.083 187.186 129.284 187.181 129.484 C 187.176 129.685 187.170 129.885 187.163 130.086 C 187.156 130.286 187.148 130.487 187.139 130.687 C 187.130 130.888 187.120 131.088 187.109 131.288 C 187.097 131.488 187.085 131.689 187.072 131.889 C 187.059 132.089 187.045 132.289 187.030 132.489 C 187.014 132.689 186.998 132.889 186.981 133.089 C 186.964 133.289 186.945 133.488 186.926 133.688 C 186.907 133.888 186.887 134.087 186.865 134.287 C 186.844 134.486 186.822 134.686 186.798 134.885 C 186.775 135.084 186.751 135.283 186.725 135.482 C 186.700 135.681 186.674 135.880 186.646 136.079 C 186.619 136.277 186.590 136.476 186.561 136.674 C 186.532 136.873 186.501 137.071 186.470 137.269 C 186.438 137.467 186.406 137.665 186.373 137.863 C 186.339 138.061 186.305 138.258 186.269 138.456 C 186.234 138.653 186.197 138.850 186.160 139.047 C 186.123 139.245 186.084 139.441 186.045 139.638 C 186.005 139.835 185.965 140.031 185.923 140.228 C 185.882 140.424 185.840 140.620 185.796 140.816 C 185.753 141.011 185.708 141.207 185.663 141.402 C 185.618 141.598 185.571 141.793 185.524 141.988 C 185.476 142.183 185.428 142.377 185.379 142.572 C 185.329 142.766 185.279 142.960 185.227 143.154 C 185.176 143.348 185.124 143.542 185.070 143.735 C 185.017 143.929 184.963 144.122 184.908 144.315 C 184.852 144.507 184.796 144.700 184.739 144.892 C 184.682 145.084 184.623 145.276 184.564 145.468 C 184.505 145.660 184.445 145.851 184.384 146.042 C 184.323 146.233 184.260 146.424 184.197 146.614 C 184.134 146.805 184.070 146.995 184.005 147.185 C 183.940 147.374 183.874 147.564 183.807 147.753 C 183.740 147.942 183.673 148.131 183.604 148.319 C 183.535 148.507 183.465 148.695 183.394 148.883 C 183.324 149.071 183.252 149.258 183.179 149.445 C 183.107 149.632 183.033 149.819 182.958 150.005 C 182.884 150.191 182.808 150.377 182.732 150.562 C 182.655 150.748 182.578 150.933 182.500 151.118 C 182.421 151.302 182.342 151.487 182.262 151.670 C 182.182 151.854 182.101 152.038 182.019 152.221 C 181.936 152.404 181.853 152.586 181.770 152.769 C 181.686 152.951 181.601 153.132 181.515 153.314 C 181.429 153.495 181.343 153.676 181.255 153.856 C 181.167 154.037 181.079 154.217 180.989 154.396" fill="none" stroke="currentColor" stroke-width="10" stroke-linecap="round" stroke-linejoin="round"/>
  <path d="M 164.699 174.452 C 164.647 174.493 164.595 174.534 164.543 174.575 C 164.492 174.616 164.440 174.656 164.388 174.697 C 164.335 174.737 164.283 174.778 164.231 174.818 C 164.179 174.859 164.127 174.899 164.074 174.939 C 164.022 174.979 163.970 175.019 163.917 175.059 C 163.865 175.099 163.812 175.139 163.760 175.179 C 163.707 175.219 163.655 175.259 163.602 175.298 C 163.549 175.338 163.496 175.378 163.444 175.417 C 163.391 175.457 163.338 175.496 163.285 175.535 C 163.232 175.575 163.179 175.614 163.126 175.653 C 163.073 175.692 163.019 175.731 162.966 175.770 C 162.913 175.809 162.860 175.848 162.806 175.887 C 162.753 175.926 162.700 175.964 162.646 176.003 C 162.593 176.042 162.539 176.080 162.485 176.119 C 162.432 176.157 162.378 176.195 162.324 176.234 C 162.271 176.272 162.217 176.310 162.163 176.348 C 162.109 176.386 162.055 176.424 162.001 176.462 C 161.947 176.500 161.893 176.538 161.839 176.575 C 161.785 176.613 161.730 176.651 161.676 176.688 C 161.622 176.726 161.568 176.763 161.513 176.801 C 161.459 176.838 161.404 176.875 161.350 176.912 C 161.295 176.950 161.241 176.987 161.186 177.024 C 161.132 177.061 161.077 177.097 161.022 177.134 C 160.967 177.171 160.913 177.208 160.858 177.244 C 160.803 177.281 160.748 177.318 160.693 177.354 C 160.638 177.390 160.583 177.427 160.528 177.463 C 160.473 177.499 160.417 177.535 160.362 177.571 C 160.307 177.608 160.252 177.644 160.196 177.679 C 160.141 177.715 160.085 177.751 160.030 177.787 C 159.974 177.822 159.919 177.858 159.863 177.894 C 159.808 177.929 159.752 177.964 159.696 178.000 C 159.641 178.035 159.585 178.070 159.529 178.105 C 159.473 178.141 159.417 178.176 159.361 178.211 C 159.305 178.246 159.249 178.280 159.193 178.315 C 159.137 178.350 159.081 178.385 159.025 178.419 C 158.969 178.454 158.912 178.488 158.856 178.523 C 158.800 178.557 158.744 178.591 158.687 178.625 C 158.631 178.660 158.574 178.694 158.518 178.728 C 158.461 178.762 158.405 178.796 158.348 178.830 C 158.291 178.863 158.235 178.897 158.178 178.931 C 158.121 178.964 158.064 178.998 158.007 179.031 C 157.951 179.065 157.894 179.098 157.837 179.131 C 157.780 179.165 157.723 179.198 157.666 179.231 C 157.608 179.264 157.551 179.297 157.494 179.330 C 157.437 179.363 157.380 179.395 157.322 179.428 C 157.265 179.461 157.208 179.493 157.150 179.526 C 157.093 179.558 157.035 179.591 156.978 179.623 C 156.920 179.655 156.863 179.687 156.805 179.720 C 156.747 179.752 156.690 179.784 156.632 179.816 C 156.574 179.847 156.516 179.879 156.459 179.911 C 156.401 179.943 156.343 179.974 156.285 180.006 C 156.227 180.037 156.169 180.069 156.111 180.100 C 156.053 180.131 155.995 180.163 155.937 180.194 C 155.878 180.225 155.820 180.256 155.762 180.287 C 155.704 180.318 155.645 180.349 155.587 180.379 C 155.529 180.410 155.470 180.441 155.412 180.471 C 155.353 180.502 155.295 180.532 155.236 180.563 C 155.178 180.593 155.119 180.623 155.060 180.653 C 155.002 180.684 154.943 180.714 154.884 180.744 C 154.825 180.774 154.766 180.803 154.708 180.833 C 154.649 180.863 154.590 180.893 154.531 180.922 C 154.472 180.952 154.413 180.981 154.354 181.011 C 154.295 181.040 154.235 181.069 154.176 181.098 C 154.117 181.128 154.058 181.157 153.999 181.186 C 153.939 181.215 153.880 181.243 153.821 181.272 C 153.761 181.301 153.702 181.330 153.642 181.358 C 153.583 181.387 153.523 181.415 153.464 181.444 C 153.404 181.472 153.345 181.500 153.285 181.529 C 153.225 181.557 153.166 181.585 153.106 181.613 C 153.046 181.641 152.986 181.669 152.927 181.696 C 152.867 181.724 152.807 181.752 152.747 181.779 C 152.687 181.807 152.627 181.834 152.567 181.862 C 152.507 181.889 152.447 181.917 152.387 181.944 C 152.327 181.971 152.267 181.998 152.206 182.025 C 152.146 182.052 152.086 182.079 152.026 182.106 C 151.965 182.132 151.905 182.159 151.845 182.186 C 151.784 182.212 151.724 182.239 151.663 182.265 C 151.603 182.291 151.542 182.318 151.482 182.344 C 151.421 182.370 151.361 182.396 151.300 182.422 C 151.239 182.448 151.179 182.474 151.118 182.500 C 151.057 182.525 150.996 182.551 150.936 182.577 C 150.875 182.602 150.814 182.628 150.753 182.653 C 150.692 182.678 150.631 182.704 150.570 182.729 C 150.509 182.754 150.448 182.779 150.387 182.804 C 150.326 182.829 150.265 182.854 150.204 182.878 C 150.143 182.903 150.081 182.928 150.020 182.952 C 149.959 182.977 149.898 183.001 149.836 183.026 C 149.775 183.050 149.714 183.074 149.652 183.098 C 149.591 183.122 149.529 183.146 149.468 183.170 C 149.406 183.194 149.345 183.218 149.283 183.242 C 149.222 183.266 149.160 183.289 149.098 183.313 C 149.037 183.336 148.975 183.360 148.913 183.383 C 148.852 183.406 148.790 183.429 148.728 183.453 C 148.666 183.476 148.605 183.499 148.543 183.522 C 148.481 183.544 148.419 183.567 148.357 183.590 C 148.295 183.613 148.233 183.635 148.171 183.658 C 148.109 183.680 148.047 183.702 147.985 183.725 C 147.923 183.747 147.861 183.769 147.798 183.791 C 147.736 183.813 147.674 183.835 147.612 183.857 C 147.550 183.879 147.487 183.901 147.425 183.922 C 147.363 183.944 147.300 183.966 147.238 183.987 C 147.175 184.008 147.113 184.030 147.051 184.051 C 146.988 184.072 146.926 184.093 146.863 184.114 C 146.801 184.135 146.738 184.156 146.675 184.177 C 146.613 184.198 146.550 184.219 146.487 184.239 C 146.425 184.260 146.362 184.280 146.299 184.301 C 146.237 184.321 146.174 184.341 146.111 184.362 C 146.048 184.382 145.985 184.402 145.922 184.422 C 145.860 184.442 145.797 184.462 145.734 184.481 C 145.671 184.501 145.608 184.521 145.545 184.540 C 145.482 184.560 145.419 184.579 145.356 184.599 C 145.293 184.618 145.230 184.637 145.166 184.656 C 145.103 184.676 145.040 184.695 144.977 184.714 C 144.914 184.732 144.850 184.751 144.787 184.770 C 144.724 184.789 144.661 184.807 144.597 184.826 C 144.534 184.844 144.471 184.863 144.407 184.881 C 144.344 184.899 144.280 184.917 144.217 184.935 C 144.154 184.954 144.090 184.972 144.027 184.989 C 143.963 185.007 143.900 185.025 143.836 185.043 C 143.772 185.060 143.709 185.078 143.645 185.095 C 143.582 185.113 143.518 185.130 143.454 185.147 C 143.390 185.164 143.327 185.182 143.263 185.199 C 143.199 185.216 143.136 185.233 143.072 185.249 C 143.008 185.266 142.944 185.283 142.880 185.299 C 142.816 185.316 142.753 185.332 142.689 185.349 C 142.625 185.365 142.561 185.381 142.497 185.398 C 142.433 185.414 142.369 185.430 142.305 185.446 C 142.241 185.462 142.177 185.478 142.113 185.493 C 142.049 185.509 141.985 185.525 141.920 185.540 C 141.856 185.556 141.792 185.571 141.728 185.586 C 141.664 185.602 141.600 185.617 141.535 185.632 C 141.471 185.647 141.407 185.662 141.343 185.677 C 141.278 185.692 141.214 185.706 141.150 185.721 C 141.085 185.736 141.021 185.750 140.957 185.765 C 140.892 185.779 140.828 185.794 140.763 185.808 C 140.699 185.822 140.635 185.836 140.570 185.850 C 140.506 185.864 140.441 185.878 140.377 185.892 C 140.312 185.906 140.248 185.919 140.183 185.933 C 140.119 185.946 140.054 185.960 139.989 185.973 C 139.925 185.987 139.860 186.000 139.795 186.013 C 139.731 186.026 139.666 186.039 139.601 186.052 C 139.537 186.065 139.472 186.078 139.407 186.091 C 139.343 186.103 139.278 186.116 139.213 186.128 C 139.148 186.141 139.083 186.153 139.019 186.166 C 138.954 186.178 138.889 186.190 138.824 186.202 C 138.759 186.214 138.694 186.226 138.629 186.238 C 138.565 186.250 138.500 186.261 138.435 186.273 C 138.370 186.285 138.305 186.296 138.240 186.308 C 138.175 186.319 138.110 186.330 138.045 186.342 C 137.980 186.353 137.915 186.364 137.850 186.375 C 137.785 186.386 137.720 186.397 137.655 186.407 C 137.589 186.418 137.524 186.429 137.459 186.439 C 137.394 186.450 137.329 186.460 137.264 186.471 C 137.199 186.481 137.133 186.491 137.068 186.501 C 137.003 186.511 136.938 186.521 136.873 186.531 C 136.807 186.541 136.742 186.551 136.677 186.561 C 136.612 186.570 136.546 186.580 136.481 186.589 C 136.416 186.599 136.350 186.608 136.285 186.617 C 136.220 186.627 136.155 186.636 136.089 186.645 C 136.024 186.654 135.958 186.663 135.893 186.671 C 135.828 186.680 135.762 186.689 135.697 186.698 C 135.631 186.706 135.566 186.715 135.501 186.723 C 135.435 186.731 135.370 186.740 135.304 186.748 C 135.239 186.756 135.173 186.764 135.108 186.772 C 135.042 186.780 134.977 186.787 134.911 186.795 C 134.846 186.803 134.780 186.810 134.715 186.818 C 134.649 186.825 134.584 186.833 134.518 186.840 C 134.452 186.847 134.387 186.855 134.321 186.862 C 134.256 186.869 134.190 186.876 134.124 186.882 C 134.059 186.889 133.993 186.896 133.928 186.903 C 133.862 186.909 133.796 186.916 133.731 186.922 C 133.665 186.928 133.599 186.935 133.534 186.941 C 133.468 186.947 133.402 186.953 133.336 186.959 C 133.271 186.965 133.205 186.971 133.139 186.976 C 133.074 186.982 133.008 186.988 132.942 186.993 C 132.876 186.999 132.811 187.004 132.745 187.010 C 132.679 187.015 132.613 187.020 132.548 187.025 C 132.482 187.030 132.416 187.035 132.350 187.040 C 132.284 187.045 132.219 187.050 132.153 187.054 C 132.087 187.059 132.021 187.063 131.955 187.068 C 131.890 187.072 131.824 187.076 131.758 187.081 C 131.692 187.085 131.626 187.089 131.560 187.093 C 131.494 187.097 131.429 187.101 131.363 187.104 C 131.297 187.108 131.231 187.112 131.165 187.115 C 131.099 187.119 131.033 187.122 130.967 187.126 C 130.902 187.129 130.836 187.132 130.770 187.135 C 130.704 187.138 130.638 187.141 130.572 187.144 C 130.506 187.147 130.440 187.150 130.374 187.152 C 130.308 187.155 130.243 187.158 130.177 187.160 C 130.111 187.162 130.045 187.165 129.979 187.167 C 129.913 187.169 129.847 187.171 129.781 187.173 C 129.715 187.175 129.649 187.177 129.583 187.179 C 129.517 187.181 129.451 187.182 129.385 187.184 C 129.319 187.185 129.253 187.187 129.187 187.188 C 129.121 187.189 129.055 187.191 128.990 187.192 C 128.924 187.193 128.858 187.194 128.792 187.195 C 128.726 187.196 128.660 187.196 128.594 187.197 C 128.528 187.198 128.462 187.198 128.396 187.199 C 128.330 187.199 128.264 187.199 128.198 187.200 C 128.132 187.200 128.066 187.200 128.000 187.200" fill="none" stroke="currentColor" stroke-width="10" stroke-linecap="round" stroke-linejoin="round"/>
  <path d="M 128.000 187.200 C 127.690 187.200 127.380 187.198 127.070 187.193 C 126.760 187.188 126.450 187.181 126.140 187.171 C 125.831 187.161 125.521 187.149 125.211 187.134 C 124.902 187.120 124.592 187.103 124.283 187.083 C 123.973 187.064 123.664 187.042 123.355 187.018 C 123.046 186.993 122.737 186.966 122.429 186.937 C 122.120 186.908 121.812 186.877 121.504 186.842 C 121.196 186.808 120.888 186.772 120.580 186.733 C 120.273 186.694 119.966 186.653 119.659 186.609 C 119.352 186.566 119.045 186.520 118.739 186.471 C 118.433 186.423 118.127 186.372 117.822 186.318 C 117.516 186.265 117.212 186.209 116.907 186.151 C 116.603 186.093 116.299 186.033 115.995 185.970 C 115.691 185.907 115.388 185.842 115.086 185.774 C 114.783 185.707 114.481 185.637 114.180 185.564 C 113.879 185.492 113.578 185.417 113.278 185.340 C 112.977 185.263 112.678 185.184 112.379 185.102 C 112.080 185.020 111.781 184.936 111.484 184.849 C 111.186 184.763 110.889 184.674 110.593 184.583 C 110.297 184.492 110.001 184.398 109.706 184.303 C 109.411 184.207 109.117 184.109 108.824 184.008 C 108.531 183.908 108.238 183.805 107.947 183.700 C 107.655 183.595 107.364 183.488 107.074 183.378 C 106.784 183.269 106.495 183.157 106.207 183.043 C 105.919 182.929 105.632 182.812 105.345 182.694 C 105.059 182.575 104.773 182.454 104.489 182.331 C 104.204 182.208 103.921 182.083 103.638 181.955 C 103.356 181.828 103.074 181.698 102.794 181.566 C 102.513 181.434 102.234 181.300 101.956 181.163 C 101.677 181.027 101.400 180.888 101.124 180.748 C 100.848 180.607 100.572 180.464 100.299 180.319 C 100.025 180.174 99.752 180.027 99.480 179.877 C 99.209 179.728 98.938 179.577 98.669 179.423 C 98.400 179.269 98.132 179.114 97.865 178.956 C 97.598 178.798 97.332 178.638 97.068 178.476 C 96.804 178.314 96.541 178.150 96.279 177.984 C 96.017 177.818 95.757 177.650 95.498 177.480 C 95.239 177.310 94.981 177.137 94.725 176.963 C 94.468 176.789 94.213 176.613 93.960 176.434 C 93.706 176.256 93.454 176.076 93.203 175.894 C 92.952 175.712 92.703 175.527 92.455 175.341 C 92.207 175.155 91.961 174.967 91.716 174.777 C 91.471 174.587 91.228 174.395 90.986 174.201 C 90.744 174.008 90.503 173.812 90.264 173.614 C 90.026 173.417 89.788 173.217 89.553 173.016 C 89.317 172.815 89.083 172.612 88.850 172.407 C 88.618 172.202 88.387 171.995 88.158 171.786 C 87.928 171.578 87.701 171.367 87.475 171.155 C 87.249 170.943 87.025 170.729 86.802 170.513 C 86.579 170.297 86.358 170.080 86.139 169.861 C 85.920 169.642 85.703 169.421 85.487 169.198 C 85.271 168.975 85.057 168.751 84.845 168.525 C 84.633 168.299 84.422 168.072 84.214 167.842 C 84.005 167.613 83.798 167.382 83.593 167.150 C 83.388 166.917 83.185 166.683 82.984 166.447 C 82.783 166.212 82.583 165.974 82.386 165.736 C 82.188 165.497 81.992 165.256 81.799 165.014 C 81.605 164.772 81.413 164.529 81.223 164.284 C 81.033 164.039 80.845 163.793 80.659 163.545 C 80.473 163.297 80.288 163.048 80.106 162.797 C 79.924 162.546 79.744 162.294 79.566 162.040 C 79.387 161.787 79.211 161.532 79.037 161.275 C 78.863 161.019 78.690 160.761 78.520 160.502 C 78.350 160.243 78.182 159.983 78.016 159.721 C 77.850 159.459 77.686 159.196 77.524 158.932 C 77.362 158.668 77.202 158.402 77.044 158.135 C 76.886 157.868 76.731 157.600 76.577 157.331 C 76.423 157.062 76.272 156.791 76.123 156.520 C 75.973 156.248 75.826 155.975 75.681 155.701 C 75.536 155.428 75.393 155.152 75.252 154.876 C 75.112 154.600 74.973 154.323 74.837 154.044 C 74.700 153.766 74.566 153.487 74.434 153.206 C 74.302 152.926 74.172 152.644 74.045 152.362 C 73.917 152.079 73.792 151.796 73.669 151.511 C 73.546 151.227 73.425 150.941 73.306 150.655 C 73.188 150.368 73.071 150.081 72.957 149.793 C 72.843 149.505 72.731 149.216 72.622 148.926 C 72.512 148.636 72.405 148.345 72.300 148.053 C 72.195 147.762 72.092 147.469 71.992 147.176 C 71.891 146.883 71.793 146.589 71.697 146.294 C 71.602 145.999 71.508 145.703 71.417 145.407 C 71.326 145.111 71.237 144.814 71.151 144.516 C 71.064 144.219 70.980 143.920 70.898 143.621 C 70.816 143.322 70.737 143.023 70.660 142.722 C 70.583 142.422 70.508 142.121 70.436 141.820 C 70.363 141.519 70.293 141.217 70.226 140.914 C 70.158 140.612 70.093 140.309 70.030 140.005 C 69.967 139.701 69.907 139.397 69.849 139.093 C 69.791 138.788 69.735 138.484 69.682 138.178 C 69.628 137.873 69.577 137.567 69.529 137.261 C 69.480 136.955 69.434 136.648 69.391 136.341 C 69.347 136.034 69.306 135.727 69.267 135.420 C 69.228 135.112 69.192 134.804 69.158 134.496 C 69.123 134.188 69.092 133.880 69.063 133.571 C 69.034 133.263 69.007 132.954 68.982 132.645 C 68.958 132.336 68.936 132.027 68.917 131.717 C 68.897 131.408 68.880 131.098 68.866 130.789 C 68.851 130.479 68.839 130.169 68.829 129.860 C 68.819 129.550 68.812 129.240 68.807 128.930 C 68.802 128.620 68.800 128.310 68.800 128.000 C 68.800 127.690 68.802 127.380 68.807 127.070 C 68.812 126.760 68.819 126.450 68.829 126.140 C 68.839 125.831 68.851 125.521 68.866 125.211 C 68.880 124.902 68.897 124.592 68.917 124.283 C 68.936 123.973 68.958 123.664 68.982 123.355 C 69.007 123.046 69.034 122.737 69.063 122.429 C 69.092 122.120 69.123 121.812 69.158 121.504 C 69.192 121.196 69.228 120.888 69.267 120.580 C 69.306 120.273 69.347 119.966 69.391 119.659 C 69.434 119.352 69.480 119.045 69.529 118.739 C 69.577 118.433 69.628 118.127 69.682 117.822 C 69.735 117.516 69.791 117.212 69.849 116.907 C 69.907 116.603 69.967 116.299 70.030 115.995 C 70.093 115.691 70.158 115.388 70.226 115.086 C 70.293 114.783 70.363 114.481 70.436 114.180 C 70.508 113.879 70.583 113.578 70.660 113.278 C 70.737 112.977 70.816 112.678 70.898 112.379 C 70.980 112.080 71.064 111.781 71.151 111.484 C 71.237 111.186 71.326 110.889 71.417 110.593 C 71.508 110.297 71.602 110.001 71.697 109.706 C 71.793 109.411 71.891 109.117 71.992 108.824 C 72.092 108.531 72.195 108.238 72.300 107.947 C 72.405 107.655 72.512 107.364 72.622 107.074 C 72.731 106.784 72.843 106.495 72.957 106.207 C 73.071 105.919 73.188 105.632 73.306 105.345 C 73.425 105.059 73.546 104.773 73.669 104.489 C 73.792 104.204 73.917 103.921 74.045 103.638 C 74.172 103.356 74.302 103.074 74.434 102.794 C 74.566 102.513 74.700 102.234 74.837 101.956 C 74.973 101.677 75.112 101.400 75.252 101.124 C 75.393 100.848 75.536 100.572 75.681 100.299 C 75.826 100.025 75.973 99.752 76.123 99.480 C 76.272 99.209 76.423 98.938 76.577 98.669 C 76.731 98.400 76.886 98.132 77.044 97.865 C 77.202 97.598 77.362 97.332 77.524 97.068 C 77.686 96.804 77.850 96.541 78.016 96.279 C 78.182 96.017 78.350 95.757 78.520 95.498 C 78.690 95.239 78.863 94.981 79.037 94.725 C 79.211 94.468 79.387 94.213 79.566 93.960 C 79.744 93.706 79.924 93.454 80.106 93.203 C 80.288 92.952 80.473 92.703 80.659 92.455 C 80.845 92.207 81.033 91.961 81.223 91.716 C 81.413 91.471 81.605 91.228 81.799 90.986 C 81.992 90.744 82.188 90.503 82.386 90.264 C 82.583 90.026 82.783 89.788 82.984 89.553 C 83.185 89.317 83.388 89.083 83.593 88.850 C 83.798 88.618 84.005 88.387 84.214 88.158 C 84.422 87.928 84.633 87.701 84.845 87.475 C 85.057 87.249 85.271 87.025 85.487 86.802 C 85.703 86.579 85.920 86.358 86.139 86.139 C 86.358 85.920 86.579 85.703 86.802 85.487 C 87.025 85.271 87.249 85.057 87.475 84.845 C 87.701 84.633 87.928 84.422 88.158 84.214 C 88.387 84.005 88.618 83.798 88.850 83.593 C 89.083 83.388 89.317 83.185 89.553 82.984 C 89.788 82.783 90.026 82.583 90.264 82.386 C 90.503 82.188 90.744 81.992 90.986 81.799 C 91.228 81.605 91.471 81.413 91.716 81.223 C 91.961 81.033 92.207 80.845 92.455 80.659 C 92.703 80.473 92.952 80.288 93.203 80.106 C 93.454 79.924 93.706 79.744 93.960 79.566 C 94.213 79.387 94.468 79.211 94.725 79.037 C 94.981 78.863 95.239 78.690 95.498 78.520 C 95.757 78.350 96.017 78.182 96.279 78.016 C 96.541 77.850 96.804 77.686 97.068 77.524 C 97.332 77.362 97.598 77.202 97.865 77.044 C 98.132 76.886 98.400 76.731 98.669 76.577 C 98.938 76.423 99.209 76.272 99.480 76.123 C 99.752 75.973 100.025 75.826 100.299 75.681 C 100.572 75.536 100.848 75.393 101.124 75.252 C 101.400 75.112 101.677 74.973 101.956 74.837 C 102.234 74.700 102.513 74.566 102.794 74.434 C 103.074 74.302 103.356 74.172 103.638 74.045 C 103.921 73.917 104.204 73.792 104.489 73.669 C 104.773 73.546 105.059 73.425 105.345 73.306 C 105.632 73.188 105.919 73.071 106.207 72.957 C 106.495 72.843 106.784 72.731 107.074 72.622 C 107.364 72.512 107.655 72.405 107.947 72.300 C 108.238 72.195 108.531 72.092 108.824 71.992 C 109.117 71.891 109.411 71.793 109.706 71.697 C 110.001 71.602 110.297 71.508 110.593 71.417 C 110.889 71.326 111.186 71.237 111.484 71.151 C 111.781 71.064 112.080 70.980 112.379 70.898 C 112.678 70.816 112.977 70.737 113.278 70.660 C 113.578 70.583 113.879 70.508 114.180 70.436 C 114.481 70.363 114.783 70.293 115.086 70.226 C 115.388 70.158 115.691 70.093 115.995 70.030 C 116.299 69.967 116.603 69.907 116.907 69.849 C 117.212 69.791 117.516 69.735 117.822 69.682 C 118.127 69.628 118.433 69.577 118.739 69.529 C 119.045 69.480 119.352 69.434 119.659 69.391 C 119.966 69.347 120.273 69.306 120.580 69.267 C 120.888 69.228 121.196 69.192 121.504 69.158 C 121.812 69.123 122.120 69.092 122.429 69.063 C 122.737 69.034 123.046 69.007 123.355 68.982 C 123.664 68.958 123.973 68.936 124.283 68.917 C 124.592 68.897 124.902 68.880 125.211 68.866 C 125.521 68.851 125.831 68.839 126.140 68.829 C 126.450 68.819 126.760 68.812 127.070 68.807 C 127.380 68.802 127.690 68.800 128.000 68.800" fill="none" stroke="currentColor" stroke-width="10" stroke-linecap="round" stroke-linejoin="round"/>
</svg>
