<svg xmlns="http://www.w3.org/2000/svg" width="512" height="512" viewBox="0 0 512 512">
  <!-- }rÒÌo -->
  <rect width="512" height="512" rx="80" ry="80" fill="#ffffff"/>
  <!-- þ…¹ÎŸ favicon )>vE-	 -->
  <g transform="translate(64, 64) scale(1.5)">
    <defs>
      <linearGradient id="f" x1="0%" y1="0%" x2="100%" y2="100%">
        <stop offset="0%" stop-color="#1a1a1a"/>
        <stop offset="100%" stop-color="#0a0a0a"/>
      </linearGradient>
    </defs>
    <path d="M 80.716 48.499 C 81.058 48.295 81.401 48.094 81.746 47.895 C 82.091 47.696 82.437 47.499 82.784 47.305 C 83.131 47.110 83.479 46.918 83.829 46.728 C 84.179 46.538 84.530 46.350 84.882 46.164 C 85.234 45.979 85.587 45.796 85.942 45.615 C 86.296 45.434 86.652 45.255 87.009 45.079 C 87.365 44.902 87.723 44.728 88.082 44.556 C 88.441 44.385 88.802 44.215 89.163 44.048 C 89.524 43.881 89.886 43.716 90.250 43.554 C 90.613 43.391 90.977 43.231 91.343 43.074 C 91.708 42.916 92.075 42.760 92.442 42.607 C 92.809 42.454 93.178 42.304 93.547 42.156 C 93.917 42.007 94.287 41.862 94.658 41.718 C 95.029 41.575 95.402 41.434 95.775 41.295 C 96.148 41.156 96.522 41.020 96.896 40.886 C 97.271 40.752 97.647 40.621 98.023 40.492 C 98.400 40.363 98.777 40.236 99.155 40.112 C 99.534 39.988 99.913 39.867 100.292 39.747 C 100.672 39.628 101.053 39.511 101.434 39.397 C 101.815 39.283 102.197 39.171 102.580 39.062 C 102.962 38.952 103.346 38.845 103.730 38.741 C 104.114 38.636 104.498 38.534 104.884 38.435 C 105.269 38.336 105.655 38.239 106.042 38.144 C 106.428 38.050 106.816 37.958 107.204 37.868 C 107.591 37.779 107.980 37.692 108.369 37.607 C 108.758 37.523 109.147 37.441 109.537 37.361 C 109.927 37.282 110.317 37.205 110.708 37.131 C 111.099 37.056 111.491 36.984 111.883 36.915 C 112.275 36.846 112.667 36.779 113.060 36.715 C 113.453 36.650 113.846 36.588 114.239 36.529 C 114.633 36.470 115.027 36.413 115.421 36.359 C 115.815 36.305 116.210 36.254 116.605 36.205 C 117.000 36.156 117.395 36.109 117.791 36.065 C 118.186 36.021 118.582 35.980 118.978 35.941 C 119.375 35.902 119.771 35.866 120.167 35.832 C 120.564 35.799 120.961 35.767 121.358 35.739 C 121.755 35.710 122.152 35.684 122.549 35.661 C 122.946 35.637 123.344 35.616 123.742 35.598 C 124.139 35.580 124.537 35.564 124.935 35.551 C 125.332 35.538 125.730 35.527 126.128 35.519 C 126.526 35.511 126.924 35.505 127.322 35.502 C 127.720 35.500 128.118 35.499 128.516 35.501 C 128.914 35.504 129.312 35.508 129.710 35.516 C 130.108 35.523 130.506 35.533 130.903 35.546 C 131.301 35.558 131.699 35.573 132.097 35.591 C 132.494 35.608 132.892 35.629 133.289 35.651 C 133.686 35.674 134.084 35.699 134.481 35.727 C 134.878 35.755 135.274 35.786 135.671 35.819 C 136.068 35.852 136.464 35.887 136.860 35.925 C 137.256 35.963 137.652 36.004 138.048 36.047 C 138.444 36.091 138.839 36.136 139.234 36.185 C 139.629 36.233 140.024 36.284 140.418 36.337 C 140.813 36.391 141.207 36.447 141.600 36.505 C 141.994 36.564 142.387 36.625 142.780 36.688 C 143.173 36.752 143.566 36.818 143.958 36.887 C 144.350 36.956 144.741 37.027 145.132 37.100 C 145.523 37.174 145.914 37.250 146.304 37.329 C 146.694 37.408 147.084 37.489 147.473 37.573 C 147.862 37.657 148.251 37.743 148.639 37.832 C 149.026 37.921 149.414 38.012 149.801 38.106 C 150.187 38.200 150.574 38.296 150.959 38.395 C 151.345 38.493 151.730 38.595 152.114 38.698 C 152.498 38.802 152.882 38.908 153.265 39.017 C 153.647 39.126 154.030 39.237 154.411 39.351 C 154.792 39.464 155.173 39.580 155.553 39.699 C 155.933 39.817 156.312 39.938 156.690 40.062 C 157.069 40.185 157.446 40.311 157.823 40.440 C 158.200 40.568 158.576 40.699 158.951 40.832 C 159.326 40.965 159.700 41.101 160.073 41.239 C 160.447 41.377 160.819 41.517 161.191 41.660 C 161.562 41.803 161.933 41.948 162.302 42.095 C 162.672 42.243 163.041 42.393 163.408 42.545 C 163.776 42.698 164.143 42.852 164.508 43.009 C 164.874 43.167 165.239 43.326 165.602 43.488 C 165.966 43.650 166.329 43.814 166.690 43.980 C 167.052 44.147 167.412 44.315 167.771 44.487 C 168.131 44.658 168.489 44.831 168.846 45.007 C 169.203 45.183 169.559 45.361 169.914 45.541 C 170.269 45.721 170.622 45.904 170.975 46.089 C 171.327 46.274 171.678 46.461 172.028 46.650 C 172.378 46.840 172.727 47.032 173.075 47.225 C 173.422 47.419 173.769 47.616 174.114 47.814 C 174.459 48.012 174.802 48.213 175.145 48.416 C 175.487 48.619 175.828 48.824 176.168 49.031 C 176.508 49.238 176.846 49.448 177.183 49.659 C 177.520 49.871 177.856 50.085 178.190 50.301 C 178.525 50.517 178.858 50.735 179.189 50.955 C 179.521 51.175 179.851 51.398 180.179 51.622 C 180.508 51.847 180.835 52.073 181.161 52.302 C 181.487 52.531 181.811 52.762 182.134 52.995 C 182.456 53.227 182.777 53.462 183.097 53.700 C 183.417 53.937 183.735 54.176 184.052 54.417 C 184.368 54.658 184.683 54.901 184.997 55.147 C 185.310 55.392 185.622 55.639 185.932 55.888 C 186.243 56.138 186.551 56.389 186.858 56.642 C 187.165 56.895 187.471 57.151 187.774 57.408 C 188.078 57.665 188.380 57.924 188.681 58.185 C 188.981 58.446 189.280 58.709 189.577 58.974 C 189.874 59.239 190.169 59.506 190.463 59.775 C 190.756 60.044 191.048 60.314 191.338 60.587 C 191.628 60.859 191.916 61.134 192.203 61.410 C 192.489 61.686 192.774 61.964 193.057 62.244 C 193.340 62.524 193.621 62.806 193.900 63.089 C 194.180 63.373 194.457 63.658 194.733 63.945 C 195.008 64.232 195.282 64.521 195.554 64.812 C 195.826 65.103 196.096 65.395 196.364 65.689 C 196.632 65.983 196.898 66.279 197.162 66.577 C 197.427 66.874 197.689 67.174 197.950 67.475 C 198.210 67.776 198.468 68.078 198.725 68.383 C 198.981 68.687 199.236 68.993 199.489 69.300 C 199.741 69.608 199.992 69.917 200.240 70.228 C 200.489 70.539 200.735 70.851 200.980 71.165 C 201.225 71.479 201.467 71.795 201.707 72.112 C 201.948 72.429 202.186 72.748 202.423 73.068 C 202.659 73.388 202.893 73.710 203.126 74.033 C 203.358 74.357 203.588 74.681 203.816 75.008 C 204.044 75.334 204.270 75.661 204.494 75.991 C 204.717 76.320 204.939 76.650 205.159 76.982 C 205.378 77.314 205.595 77.648 205.811 77.982 C 206.026 78.317 206.239 78.653 206.450 78.991 C 206.661 79.328 206.869 79.667 207.076 80.008 C 207.282 80.348 207.487 80.689 207.689 81.032 C 207.891 81.375 208.091 81.719 208.288 82.065 C 208.486 82.410 208.681 82.757 208.875 83.105 C 209.068 83.453 209.259 83.802 209.447 84.153 C 209.636 84.503 209.822 84.855 210.006 85.208 C 210.191 85.560 210.372 85.914 210.552 86.270 C 210.732 86.625 210.909 86.981 211.084 87.339 C 211.259 87.696 211.431 88.055 211.602 88.414 C 211.772 88.774 211.940 89.135 212.106 89.497 C 212.271 89.859 212.435 90.222 212.596 90.586 C 212.757 90.950 212.915 91.315 213.071 91.681 C 213.228 92.047 213.382 92.414 213.533 92.782 C 213.685 93.150 213.834 93.519 213.981 93.889 C 214.127 94.259 214.272 94.630 214.414 95.001 C 214.556 95.373 214.695 95.746 214.833 96.120 C 214.970 96.493 215.104 96.868 215.237 97.243 C 215.369 97.618 215.499 97.995 215.627 98.372 C 215.754 98.749 215.879 99.126 216.002 99.505 C 216.124 99.884 216.244 100.263 216.362 100.643 C 216.480 101.024 216.595 101.404 216.708 101.786 C 216.821 102.168 216.931 102.550 217.039 102.933 C 217.147 103.316 217.252 103.700 217.355 104.085 C 217.458 104.469 217.558 104.854 217.656 105.240 C 217.754 105.626 217.850 106.012 217.943 106.399 C 218.035 106.786 218.126 107.174 218.214 107.562 C 218.302 107.950 218.387 108.339 218.470 108.728 C 218.553 109.117 218.633 109.507 218.711 109.897 C 218.789 110.288 218.865 110.679 218.937 111.070 C 219.010 111.461 219.081 111.853 219.148 112.245 C 219.216 112.637 219.281 113.030 219.344 113.423 C 219.407 113.816 219.467 114.209 219.525 114.603 C 219.582 114.997 219.637 115.391 219.690 115.786 C 219.743 116.180 219.793 116.575 219.840 116.970 C 219.887 117.365 219.932 117.761 219.975 118.156 C 220.017 118.552 220.057 118.948 220.094 119.344 C 220.131 119.741 220.166 120.137 220.198 120.534 C 220.230 120.931 220.260 121.327 220.287 121.725 C 220.314 122.122 220.338 122.519 220.360 122.916 C 220.382 123.314 220.401 123.711 220.418 124.109 C 220.435 124.507 220.449 124.904 220.461 125.302 C 220.472 125.700 220.481 126.098 220.488 126.496 C 220.494 126.894 220.498 127.292 220.499 127.690 C 220.501 128.088 220.500 128.486 220.496 128.884 C 220.492 129.282 220.486 129.680 220.477 130.077 C 220.468 130.475 220.456 130.873 220.442 131.271 C 220.428 131.669 220.411 132.066 220.392 132.464 C 220.373 132.861 220.351 133.259 220.327 133.656 C 220.303 134.053 220.276 134.450 220.246 134.847 C 220.217 135.244 220.185 135.641 220.150 136.037 C 220.116 136.434 220.078 136.830 220.039 137.226 C 219.999 137.622 219.957 138.018 219.912 138.413 C 219.867 138.809 219.820 139.204 219.770 139.599 C 219.720 139.994 219.668 140.388 219.613 140.782 C 219.558 141.177 219.500 141.570 219.440 141.964 C 219.380 142.357 219.317 142.750 219.252 143.143 C 219.187 143.536 219.119 143.928 219.049 144.320 C 218.979 144.711 218.906 145.103 218.831 145.493 C 218.755 145.884 218.678 146.275 218.597 146.664 C 218.517 147.054 218.434 147.444 218.349 147.832 C 218.264 148.221 218.176 148.609 218.085 148.997 C 217.995 149.384 217.902 149.771 217.807 150.158 C 217.712 150.544 217.614 150.930 217.513 151.315 C 217.413 151.700 217.310 152.085 217.205 152.469 C 217.100 152.852 216.992 153.236 216.882 153.618 C 216.772 154.000 216.659 154.382 216.544 154.763 C 216.429 155.144 216.311 155.524 216.191 155.904 C 216.071 156.283 215.948 156.662 215.823 157.040 C 215.698 157.418 215.571 157.795 215.441 158.171 C 215.311 158.547 215.179 158.923 215.044 159.297 C 214.910 159.672 214.773 160.045 214.633 160.418 C 214.494 160.791 214.352 161.163 214.208 161.534 C 214.063 161.905 213.917 162.274 213.768 162.644 C 213.619 163.013 213.467 163.381 213.313 163.748 C 213.159 164.115 213.003 164.481 212.845 164.846 C 212.686 165.211 212.525 165.575 212.362 165.938 C 212.199 166.301 212.033 166.663 211.865 167.024 C 211.697 167.385 211.527 167.744 211.355 168.103 C 211.182 168.462 211.007 168.819 210.830 169.176 C 210.653 169.532 210.473 169.887 210.292 170.241" fill="none" stroke="#1a1a1a" stroke-width="10" stroke-linecap="round" stroke-linejoin="round"/>
    <path d="M 175.284 207.501 C 174.942 207.705 174.599 207.906 174.254 208.105 C 173.909 208.304 173.563 208.501 173.216 208.695 C 172.869 208.890 172.521 209.082 172.171 209.272 C 171.821 209.462 171.470 209.650 171.118 209.836 C 170.766 210.021 170.413 210.204 170.058 210.385 C 169.704 210.566 169.348 210.745 168.991 210.921 C 168.635 211.098 168.277 211.272 167.918 211.444 C 167.559 211.615 167.198 211.785 166.837 211.952 C 166.476 212.119 166.114 212.284 165.750 212.446 C 165.387 212.609 165.023 212.769 164.657 212.926 C 164.292 213.084 163.925 213.240 163.558 213.393 C 163.191 213.546 162.822 213.696 162.453 213.844 C 162.083 213.993 161.713 214.138 161.342 214.282 C 160.971 214.425 160.598 214.566 160.225 214.705 C 159.852 214.844 159.478 214.980 159.104 215.114 C 158.729 215.248 158.353 215.379 157.977 215.508 C 157.600 215.637 157.223 215.764 156.845 215.888 C 156.466 216.012 156.087 216.133 155.708 216.253 C 155.328 216.372 154.947 216.489 154.566 216.603 C 154.185 216.717 153.803 216.829 153.420 216.938 C 153.038 217.048 152.654 217.155 152.270 217.259 C 151.886 217.364 151.502 217.466 151.116 217.565 C 150.731 217.664 150.345 217.761 149.958 217.856 C 149.572 217.950 149.184 218.042 148.796 218.132 C 148.409 218.221 148.020 218.308 147.631 218.393 C 147.242 218.477 146.853 218.559 146.463 218.639 C 146.073 218.718 145.683 218.795 145.292 218.869 C 144.901 218.944 144.509 219.016 144.117 219.085 C 143.725 219.154 143.333 219.221 142.940 219.285 C 142.547 219.350 142.154 219.412 141.761 219.471 C 141.367 219.530 140.973 219.587 140.579 219.641 C 140.185 219.695 139.790 219.746 139.395 219.795 C 139.000 219.844 138.605 219.891 138.209 219.935 C 137.814 219.979 137.418 220.020 137.022 220.059 C 136.625 220.098 136.229 220.134 135.833 220.168 C 135.436 220.201 135.039 220.233 134.642 220.261 C 134.245 220.290 133.848 220.316 133.451 220.339 C 133.054 220.363 132.656 220.384 132.258 220.402 C 131.861 220.420 131.463 220.436 131.065 220.449 C 130.668 220.462 130.270 220.473 129.872 220.481 C 129.474 220.489 129.076 220.495 128.678 220.498 C 128.280 220.500 127.882 220.501 127.484 220.499 C 127.086 220.496 126.688 220.492 126.290 220.484 C 125.892 220.477 125.494 220.467 125.097 220.454 C 124.699 220.442 124.301 220.427 123.903 220.409 C 123.506 220.392 123.108 220.371 122.711 220.349 C 122.314 220.326 121.916 220.301 121.519 220.273 C 121.122 220.245 120.726 220.214 120.329 220.181 C 119.932 220.148 119.536 220.113 119.140 220.075 C 118.744 220.037 118.348 219.996 117.952 219.953 C 117.556 219.909 117.161 219.864 116.766 219.815 C 116.371 219.767 115.976 219.716 115.582 219.663 C 115.187 219.609 114.793 219.553 114.400 219.495 C 114.006 219.436 113.613 219.375 113.220 219.312 C 112.827 219.248 112.434 219.182 112.042 219.113 C 111.650 219.044 111.259 218.973 110.868 218.900 C 110.477 218.826 110.086 218.750 109.696 218.671 C 109.306 218.592 108.916 218.511 108.527 218.427 C 108.138 218.343 107.749 218.257 107.361 218.168 C 106.974 218.079 106.586 217.988 106.199 217.894 C 105.813 217.800 105.426 217.704 105.041 217.605 C 104.655 217.507 104.270 217.405 103.886 217.302 C 103.502 217.198 103.118 217.092 102.735 216.983 C 102.353 216.874 101.970 216.763 101.589 216.649 C 101.208 216.536 100.827 216.420 100.447 216.301 C 100.067 216.183 99.688 216.062 99.310 215.938 C 98.931 215.815 98.554 215.689 98.177 215.560 C 97.800 215.432 97.424 215.301 97.049 215.168 C 96.674 215.035 96.300 214.899 95.927 214.761 C 95.553 214.623 95.181 214.483 94.809 214.340 C 94.438 214.197 94.067 214.052 93.698 213.905 C 93.328 213.757 92.959 213.607 92.592 213.455 C 92.224 213.302 91.857 213.148 91.492 212.991 C 91.126 212.833 90.761 212.674 90.398 212.512 C 90.034 212.350 89.671 212.186 89.310 212.020 C 88.948 211.853 88.588 211.685 88.229 211.513 C 87.869 211.342 87.511 211.169 87.154 210.993 C 86.797 210.817 86.441 210.639 86.086 210.459 C 85.731 210.279 85.378 210.096 85.025 209.911 C 84.673 209.726 84.322 209.539 83.972 209.350 C 83.622 209.160 83.273 208.968 82.925 208.775 C 82.578 208.581 82.231 208.384 81.886 208.186 C 81.541 207.988 81.198 207.787 80.855 207.584 C 80.513 207.381 80.172 207.176 79.832 206.969 C 79.492 206.762 79.154 206.552 78.817 206.341 C 78.480 206.129 78.144 205.915 77.810 205.699 C 77.475 205.483 77.142 205.265 76.811 205.045 C 76.479 204.825 76.149 204.602 75.821 204.378 C 75.492 204.153 75.165 203.927 74.839 203.698 C 74.513 203.469 74.189 203.238 73.866 203.005 C 73.544 202.773 73.223 202.538 72.903 202.300 C 72.583 202.063 72.265 201.824 71.948 201.583 C 71.632 201.342 71.317 201.099 71.003 200.853 C 70.690 200.608 70.378 200.361 70.068 200.112 C 69.757 199.862 69.449 199.611 69.142 199.358 C 68.835 199.105 68.529 198.849 68.226 198.592 C 67.922 198.335 67.620 198.076 67.319 197.815 C 67.019 197.554 66.720 197.291 66.423 197.026 C 66.126 196.761 65.831 196.494 65.537 196.225 C 65.244 195.956 64.952 195.686 64.662 195.413 C 64.372 195.141 64.084 194.866 63.797 194.590 C 63.511 194.314 63.226 194.036 62.943 193.756 C 62.660 193.476 62.379 193.194 62.100 192.911 C 61.820 192.627 61.543 192.342 61.267 192.055 C 60.992 191.768 60.718 191.479 60.446 191.188 C 60.174 190.897 59.904 190.605 59.636 190.311 C 59.368 190.017 59.102 189.721 58.838 189.423 C 58.573 189.126 58.311 188.826 58.050 188.525 C 57.790 188.224 57.532 187.922 57.275 187.617 C 57.019 187.313 56.764 187.007 56.511 186.700 C 56.259 186.392 56.008 186.083 55.760 185.772 C 55.511 185.461 55.265 185.149 55.020 184.835 C 54.775 184.521 54.533 184.205 54.293 183.888 C 54.052 183.571 53.814 183.252 53.577 182.932 C 53.341 182.612 53.107 182.290 52.874 181.967 C 52.642 181.643 52.412 181.319 52.184 180.992 C 51.956 180.666 51.730 180.339 51.506 180.009 C 51.283 179.680 51.061 179.350 50.841 179.018 C 50.622 178.686 50.405 178.352 50.189 178.018 C 49.974 177.683 49.761 177.347 49.550 177.009 C 49.339 176.672 49.131 176.333 48.924 175.992 C 48.718 175.652 48.513 175.311 48.311 174.968 C 48.109 174.625 47.909 174.281 47.712 173.935 C 47.514 173.590 47.319 173.243 47.125 172.895 C 46.932 172.547 46.741 172.198 46.553 171.847 C 46.364 171.497 46.178 171.145 45.994 170.792 C 45.809 170.440 45.628 170.086 45.448 169.730 C 45.268 169.375 45.091 169.019 44.916 168.661 C 44.741 168.304 44.569 167.945 44.398 167.586 C 44.228 167.226 44.060 166.865 43.894 166.503 C 43.729 166.141 43.565 165.778 43.404 165.414 C 43.243 165.050 43.085 164.685 42.929 164.319 C 42.772 163.953 42.618 163.586 42.467 163.218 C 42.315 162.850 42.166 162.481 42.019 162.111 C 41.873 161.741 41.728 161.370 41.586 160.999 C 41.444 160.627 41.305 160.254 41.167 159.880 C 41.030 159.507 40.896 159.132 40.763 158.757 C 40.631 158.382 40.501 158.005 40.373 157.628 C 40.246 157.251 40.121 156.874 39.998 156.495 C 39.876 156.116 39.756 155.737 39.638 155.357 C 39.520 154.976 39.405 154.596 39.292 154.214 C 39.179 153.832 39.069 153.450 38.961 153.067 C 38.853 152.684 38.748 152.300 38.645 151.915 C 38.542 151.531 38.442 151.146 38.344 150.760 C 38.246 150.374 38.150 149.988 38.057 149.601 C 37.965 149.214 37.874 148.826 37.786 148.438 C 37.698 148.050 37.613 147.661 37.530 147.272 C 37.447 146.883 37.367 146.493 37.289 146.103 C 37.211 145.712 37.135 145.321 37.063 144.930 C 36.990 144.539 36.919 144.147 36.852 143.755 C 36.784 143.363 36.719 142.970 36.656 142.577 C 36.593 142.184 36.533 141.791 36.475 141.397 C 36.418 141.003 36.363 140.609 36.310 140.214 C 36.257 139.820 36.207 139.425 36.160 139.030 C 36.113 138.635 36.068 138.239 36.025 137.844 C 35.983 137.448 35.943 137.052 35.906 136.656 C 35.869 136.259 35.834 135.863 35.802 135.466 C 35.770 135.069 35.740 134.673 35.713 134.275 C 35.686 133.878 35.662 133.481 35.640 133.084 C 35.618 132.686 35.599 132.289 35.582 131.891 C 35.565 131.493 35.551 131.096 35.539 130.698 C 35.528 130.300 35.519 129.902 35.512 129.504 C 35.506 129.106 35.502 128.708 35.501 128.310 C 35.499 127.912 35.500 127.514 35.504 127.116 C 35.508 126.718 35.514 126.320 35.523 125.923 C 35.532 125.525 35.544 125.127 35.558 124.729 C 35.572 124.331 35.589 123.934 35.608 123.536 C 35.627 123.139 35.649 122.741 35.673 122.344 C 35.697 121.947 35.724 121.550 35.754 121.153 C 35.783 120.756 35.815 120.359 35.850 119.963 C 35.884 119.566 35.922 119.170 35.961 118.774 C 36.001 118.378 36.043 117.982 36.088 117.587 C 36.133 117.191 36.180 116.796 36.230 116.401 C 36.280 116.006 36.332 115.612 36.387 115.218 C 36.442 114.823 36.500 114.430 36.560 114.036 C 36.620 113.643 36.683 113.250 36.748 112.857 C 36.813 112.464 36.881 112.072 36.951 111.680 C 37.021 111.289 37.094 110.897 37.169 110.507 C 37.245 110.116 37.322 109.725 37.403 109.336 C 37.483 108.946 37.566 108.556 37.651 108.168 C 37.736 107.779 37.824 107.391 37.915 107.003 C 38.005 106.616 38.098 106.229 38.193 105.842 C 38.288 105.456 38.386 105.070 38.487 104.685 C 38.587 104.300 38.690 103.915 38.795 103.531 C 38.900 103.148 39.008 102.764 39.118 102.382 C 39.228 102.000 39.341 101.618 39.456 101.237 C 39.571 100.856 39.689 100.476 39.809 100.096 C 39.929 99.717 40.052 99.338 40.177 98.960 C 40.302 98.582 40.429 98.205 40.559 97.829 C 40.689 97.453 40.821 97.077 40.956 96.703 C 41.090 96.328 41.227 95.955 41.367 95.582 C 41.506 95.209 41.648 94.837 41.792 94.466 C 41.937 94.095 42.083 93.726 42.232 93.356 C 42.381 92.987 42.533 92.619 42.687 92.252 C 42.841 91.885 42.997 91.519 43.155 91.154 C 43.314 90.789 43.475 90.425 43.638 90.062 C 43.801 89.699 43.967 89.337 44.135 88.976 C 44.303 88.615 44.473 88.256 44.645 87.897 C 44.818 87.538 44.993 87.181 45.170 86.824 C 45.347 86.468 45.527 86.113 45.708 85.759" fill="none" stroke="#1a1a1a" stroke-width="10" stroke-linecap="round" stroke-linejoin="round"/>
  </g>
</svg>
